<?xml version="1.0" encoding="UTF-8" standalone="no"?>
<!-- Created with Inkscape (http://www.inkscape.org/) -->

<svg
   width="57mm"
   height="57mm"
   viewBox="0 0 57 57"
   version="1.1"
   id="svg1"
   xmlns="http://www.w3.org/2000/svg"
   xmlns:svg="http://www.w3.org/2000/svg">
  <defs
     id="defs1" />
  <g
     id="layer1">
    <g
       id="g1"
       transform="translate(0.75959079,0.25319693)">
      <path
         id="path4143_4_"
         class="st1"
         d="m 12.105046,8.6437693 c 0.0768,0 0.2303,0.0768 0.30706,0.0768 2.07266,0.69089 3.83825,1.6888297 3.83825,1.7655997 1.61207,1.15147 3.0706,2.61001 4.06855,4.29884 0.38382,0.53735 4.375603,6.60179 7.292673,10.90063 -0.69088,0.99794 -1.305,1.91912 -1.76559,2.68677 0,-0.0768 -0.0768,-0.0768 -0.0768,-0.15353 -2.99383,-4.45237 -8.213853,-12.2824 -8.597683,-12.89652 -0.69088,-1.07471 -1.68883,-2.07265 -2.91707,-2.8403 0,0 -1.305,-0.84442 -2.99383,-1.38177 -0.69089,-0.2303 -1.8423598,-0.46059 -3.3776599,-0.61412 v 35.92602 c 1.5353001,-0.15353 2.6867699,-0.38383 3.3776599,-0.61412 1.68883,-0.53736 2.99383,-1.38177 2.99383,-1.38177 1.30501,-0.84442 2.22619,-1.84236 2.99384,-2.91707 0.38382,-0.53736 5.603843,-8.44415 8.597683,-12.89652 2.45648,-3.76149 8.67444,-13.12682 9.13503,-13.74094 1.07471,-1.68883 2.45648,-3.14736 4.06855,-4.29884 0,-0.0768 1.76559,-1.0747097 3.83825,-1.7655897 l 0.38382,-0.15353 z m 35.311903,1.8423597 c -1.5353,0.15353 -2.68677,0.38382 -3.37766,0.61412 -1.68883,0.53735 -2.99383,1.38177 -2.99383,1.38177 -1.22824,0.76765 -2.22619,1.76559 -2.99384,2.91707 -0.38382,0.53735 -5.60384,8.44415 -8.59768,12.89652 -2.37971,3.68472 -8.597683,13.05005 -9.058273,13.66417 -1.07471,1.68883 -2.45648,3.14736 -4.06854,4.29884 0,0.0768 -1.7656,1.07471 -3.83825,1.76559 l -0.46059,0.0768 h 31.166593 l -0.30706,-0.0768 c -2.07266,-0.69088 -3.83825,-1.68883 -3.83825,-1.76559 -1.61207,-1.15148 -3.0706,-2.61001 -4.06855,-4.29884 -0.38382,-0.53736 -4.3756,-6.60179 -7.29267,-10.90063 0.69088,-0.99795 1.305,-1.91913 1.76559,-2.68678 0,0.0768 0.0768,0.0768 0.0768,0.15353 2.99383,4.45237 8.21385,12.2824 8.59768,12.89652 0.76765,1.07471 1.68883,2.07266 2.99383,2.91707 0,0 1.30501,0.84442 2.99384,1.38177 0.69088,0.2303 1.84236,0.38383 3.37766,0.61412 v 1.7656 h 0.0768 v -37.61485 z"
         style="display:inline;fill:#40b3c3;stroke-width:0.76765" />
      <path
         id="path7-3_3_"
         class="st2"
         d="m 29.377179,28.372369 c -0.46059,0.69089 -1.07471,1.61207 -1.7656,2.68678 2.91707,4.3756 6.90885,10.44004 7.29268,10.90063 1.07471,1.68883 2.45648,3.14736 4.06854,4.29884 0,0.0768 1.7656,1.07471 3.83825,1.76559 0.15353,0 0.30706,0.0768 0.46059,0.0768 h 4.06855 v -1.84236 c -1.5353,-0.15353 -2.68678,-0.38383 -3.37766,-0.61412 -1.68883,-0.53736 -2.99384,-1.38177 -2.99384,-1.38177 -1.22824,-0.76765 -2.22618,-1.7656 -2.99383,-2.91707 -0.30706,-0.46059 -5.52708,-8.29062 -8.52092,-12.74299 v 0 c 0,-0.0768 0,-0.15353 -0.0768,-0.2303 M 11.951476,8.6437993 H 7.8829361 v 1.8423597 c 1.5353001,0.15353 2.6867699,0.38382 3.3776599,0.61412 1.68883,0.53735 2.99383,1.38177 2.99383,1.38177 1.22824,0.76765 2.22619,1.76559 2.99384,2.91707 0.38382,0.53735 5.603843,8.44415 8.597683,12.89652 v 0 c 0,0.0768 0.0768,0.0768 0.0768,0.15353 0.46059,-0.69089 1.07471,-1.61207 1.7656,-2.68678 -2.91707,-4.3756 -6.908853,-10.44004 -7.292683,-10.97739 -1.07471,-1.68883 -2.45648,-3.14737 -4.06854,-4.29884 0,-0.0768 -1.7656,-1.0747097 -3.83825,-1.7655997 -0.15353,0 -0.30706,-0.0768 -0.53736,-0.0768"
         style="display:inline;opacity:0.28;fill:#40b3c3;stroke-width:0.76765" />
    </g>
  </g>
</svg>
